<svg width="26" height="18" viewBox="0 0 26 18" fill="none" xmlns="http://www.w3.org/2000/svg">
<path d="M21.4125 1.08624L19.8125 2.21124L13 6.76749L6.1875 2.16624L4.5875 1.04124C4.21057 0.760599 3.75044 0.585656 3.26411 0.538079C2.77778 0.490503 2.28664 0.572385 1.85151 0.77358C1.41639 0.974775 1.05641 1.28644 0.816176 1.66997C0.575943 2.0535 0.466011 2.49203 0.500001 2.93124V15.97C0.500001 16.3758 0.679107 16.7649 0.997919 17.0519C1.31673 17.3388 1.74913 17.5 2.2 17.5H6.1875V8.81499L13 13.4162L19.8125 8.81499V17.5H23.8C24.2509 17.5 24.6833 17.3388 25.0021 17.0519C25.3209 16.7649 25.5 16.3758 25.5 15.97V2.93124C25.5235 2.49582 25.4059 2.06364 25.1616 1.68724C24.9172 1.31083 24.5567 1.00641 24.1237 0.810982C23.6907 0.615552 23.204 0.537527 22.7227 0.586392C22.2414 0.635257 21.7862 0.808908 21.4125 1.08624Z" fill="white"/>
</svg>
